# xmcd
#
# Track frame offsets: 
#        150
#        17655
#        33160
#        57090
#        89300
#        110945
#        134426
#        155694
#        177551
#        197651
#        218646
#        239740
#        268792
#        292963
#        316503
#
# Disc length: 4516 seconds
#
# Revision: 2
# Processed by: cddbd v1.5.2PL0 Copyright (c) Steve Scherf et al.
# Submitted via: ExactAudioCopy v1.0b3
#
DISCID=d811a20f
DTITLE=Various Artist - I LOVE YOU -now and forever-  [DISC 1]
DYEAR=2012
DGENRE=JPop
TTITLE0=???? - ?????? (JUST A MAN IN LOVE)
TTITLE1=???? - ?????????
TTITLE2=???? - ??????? (I FEEL THE ECHO)
TTITLE3=???? and His Friends - Kissin' Christmas (????????????)
TTITLE4=???? - ??????
TTITLE5=???? - ?????????
TTITLE6=???? - ?
TTITLE7=???? - ?????
TTITLE8=???? - ???????
TTITLE9=???? - ?????
TTITLE10=???? - ROCK AND ROLL HERO
TTITLE11=???? - ??
TTITLE12=???? - ??????
TTITLE13=???? - ???????
TTITLE14=???? - ????????
EXTD=
EXTT0=
EXTT1=
EXTT2=
EXTT3=
EXTT4=
EXTT5=
EXTT6=
EXTT7=
EXTT8=
EXTT9=
EXTT10=
EXTT11=
EXTT12=
EXTT13=
EXTT14=
PLAYORDER=
